<mxfile host="app.diagrams.net" agent="Mozilla/5.0 (Windows NT 10.0; Win64; x64) AppleWebKit/537.36 (KHTML, like Gecko) Chrome/128.0.0.0 Safari/537.36" version="24.7.16">
  <diagram name="Page-1" id="5jW-yh0ttGztc2FNYnH8">
    <mxGraphModel>
      <root>
        <mxCell id="0" />
        <mxCell id="1" parent="0" />
        <mxCell id="2" value="Statistics" style="whiteSpace=wrap;strokeWidth=2;" vertex="1" parent="1">
          <mxGeometry x="862" y="1352" width="219" height="433" as="geometry" />
        </mxCell>
        <mxCell id="3" value="Notifications" style="whiteSpace=wrap;strokeWidth=2;" vertex="1" parent="1">
          <mxGeometry x="257" y="1106" width="185" height="445" as="geometry" />
        </mxCell>
        <mxCell id="4" value="Database" style="whiteSpace=wrap;strokeWidth=2;" vertex="1" parent="1">
          <mxGeometry x="8" y="647" width="229" height="1138" as="geometry" />
        </mxCell>
        <mxCell id="5" value="Game" style="whiteSpace=wrap;strokeWidth=2;" vertex="1" parent="1">
          <mxGeometry x="462" y="8" width="380" height="1543" as="geometry" />
        </mxCell>
        <mxCell id="6" value="Start Game" style="ellipse;aspect=fixed;strokeWidth=2;whiteSpace=wrap;" vertex="1" parent="1">
          <mxGeometry x="598" y="33" width="96" height="96" as="geometry" />
        </mxCell>
        <mxCell id="7" value="EnterPlayerData" style="whiteSpace=wrap;strokeWidth=2;" vertex="1" parent="1">
          <mxGeometry x="558" y="179" width="176" height="48" as="geometry" />
        </mxCell>
        <mxCell id="8" value="Check Player Data" style="ellipse;aspect=fixed;strokeWidth=2;whiteSpace=wrap;" vertex="1" parent="1">
          <mxGeometry x="574" y="278" width="146" height="146" as="geometry" />
        </mxCell>
        <mxCell id="9" value="Initialize Game" style="ellipse;aspect=fixed;strokeWidth=2;whiteSpace=wrap;" vertex="1" parent="1">
          <mxGeometry x="584" y="473" width="124" height="124" as="geometry" />
        </mxCell>
        <mxCell id="10" value="Player Input" style="ellipse;aspect=fixed;strokeWidth=2;whiteSpace=wrap;" vertex="1" parent="1">
          <mxGeometry x="595" y="700" width="102" height="102" as="geometry" />
        </mxCell>
        <mxCell id="11" value="Check Game Status" style="ellipse;aspect=fixed;strokeWidth=2;whiteSpace=wrap;" vertex="1" parent="1">
          <mxGeometry x="580" y="881" width="153" height="153" as="geometry" />
        </mxCell>
        <mxCell id="12" value="Execute Gameplay" style="ellipse;aspect=fixed;strokeWidth=2;whiteSpace=wrap;" vertex="1" parent="1">
          <mxGeometry x="651" y="1131" width="148" height="148" as="geometry" />
        </mxCell>
        <mxCell id="13" value="Update Scores" style="ellipse;aspect=fixed;strokeWidth=2;whiteSpace=wrap;" vertex="1" parent="1">
          <mxGeometry x="515" y="1393" width="117" height="117" as="geometry" />
        </mxCell>
        <mxCell id="14" value="End Game" style="ellipse;aspect=fixed;strokeWidth=2;whiteSpace=wrap;" vertex="1" parent="1">
          <mxGeometry x="682" y="1408" width="87" height="87" as="geometry" />
        </mxCell>
        <mxCell id="15" value="Store Player Data" style="ellipse;aspect=fixed;strokeWidth=2;whiteSpace=wrap;" vertex="1" parent="1">
          <mxGeometry x="52" y="887" width="140" height="140" as="geometry" />
        </mxCell>
        <mxCell id="16" value="Retrieve Game Data" style="ellipse;aspect=fixed;strokeWidth=2;whiteSpace=wrap;" vertex="1" parent="1">
          <mxGeometry x="43" y="672" width="159" height="159" as="geometry" />
        </mxCell>
        <mxCell id="17" value="Update Scores in DB" style="ellipse;aspect=fixed;strokeWidth=2;whiteSpace=wrap;" vertex="1" parent="1">
          <mxGeometry x="43" y="1601" width="159" height="159" as="geometry" />
        </mxCell>
        <mxCell id="18" value="Send Alert" style="ellipse;aspect=fixed;strokeWidth=2;whiteSpace=wrap;" vertex="1" parent="1">
          <mxGeometry x="305" y="1161" width="89" height="89" as="geometry" />
        </mxCell>
        <mxCell id="19" value="Notify Players" style="ellipse;aspect=fixed;strokeWidth=2;whiteSpace=wrap;" vertex="1" parent="1">
          <mxGeometry x="292" y="1394" width="115" height="115" as="geometry" />
        </mxCell>
        <mxCell id="20" value="Collect Game Data" style="ellipse;aspect=fixed;strokeWidth=2;whiteSpace=wrap;" vertex="1" parent="1">
          <mxGeometry x="897" y="1377" width="149" height="149" as="geometry" />
        </mxCell>
        <mxCell id="21" value="Generate Reports" style="ellipse;aspect=fixed;strokeWidth=2;whiteSpace=wrap;" vertex="1" parent="1">
          <mxGeometry x="901" y="1610" width="141" height="141" as="geometry" />
        </mxCell>
        <mxCell id="22" value="" style="curved=1;startArrow=none;endArrow=block;exitX=0.5;exitY=1;entryX=0.5;entryY=0;" edge="1" parent="1" source="6" target="7">
          <mxGeometry relative="1" as="geometry">
            <Array as="points" />
          </mxGeometry>
        </mxCell>
        <mxCell id="23" value="" style="curved=1;startArrow=none;endArrow=block;exitX=0.5;exitY=1.01;entryX=0.5;entryY=0;" edge="1" parent="1" source="7" target="8">
          <mxGeometry relative="1" as="geometry">
            <Array as="points" />
          </mxGeometry>
        </mxCell>
        <mxCell id="24" value="" style="curved=1;startArrow=none;endArrow=block;exitX=0.5;exitY=0.99;entryX=0.5;entryY=0;" edge="1" parent="1" source="8" target="9">
          <mxGeometry relative="1" as="geometry">
            <Array as="points" />
          </mxGeometry>
        </mxCell>
        <mxCell id="25" value="" style="curved=1;startArrow=none;endArrow=block;exitX=0.5;exitY=1;entryX=0.5;entryY=0;" edge="1" parent="1" source="9" target="10">
          <mxGeometry relative="1" as="geometry">
            <Array as="points" />
          </mxGeometry>
        </mxCell>
        <mxCell id="26" value="" style="curved=1;startArrow=none;endArrow=block;exitX=0.55;exitY=1;entryX=0.5;entryY=0;" edge="1" parent="1" source="10" target="11">
          <mxGeometry relative="1" as="geometry">
            <Array as="points">
              <mxPoint x="656" y="856" />
            </Array>
          </mxGeometry>
        </mxCell>
        <mxCell id="27" value="Game in Progress" style="curved=1;startArrow=none;endArrow=block;exitX=0.81;exitY=1;entryX=0.5;entryY=0;" edge="1" parent="1" source="11" target="12">
          <mxGeometry relative="1" as="geometry">
            <Array as="points">
              <mxPoint x="725" y="1070" />
            </Array>
          </mxGeometry>
        </mxCell>
        <mxCell id="28" value="" style="curved=1;startArrow=none;endArrow=block;exitX=0;exitY=0.86;entryX=0.5;entryY=0;" edge="1" parent="1" source="12" target="13">
          <mxGeometry relative="1" as="geometry">
            <Array as="points">
              <mxPoint x="573" y="1315" />
            </Array>
          </mxGeometry>
        </mxCell>
        <mxCell id="29" value="Game Over" style="curved=1;startArrow=none;endArrow=block;exitX=0.5;exitY=1;entryX=0.5;entryY=0;" edge="1" parent="1" source="12" target="14">
          <mxGeometry relative="1" as="geometry">
            <Array as="points" />
          </mxGeometry>
        </mxCell>
        <mxCell id="30" value="" style="curved=1;startArrow=none;endArrow=block;exitX=0;exitY=0.96;entryX=1;entryY=0.38;" edge="1" parent="1" source="10" target="15">
          <mxGeometry relative="1" as="geometry">
            <Array as="points">
              <mxPoint x="533" y="856" />
            </Array>
          </mxGeometry>
        </mxCell>
        <mxCell id="31" value="" style="curved=1;startArrow=none;endArrow=block;exitX=0.5;exitY=1;entryX=0;entryY=0.4;" edge="1" parent="1" source="16" target="11">
          <mxGeometry relative="1" as="geometry">
            <Array as="points">
              <mxPoint x="122" y="856" />
            </Array>
          </mxGeometry>
        </mxCell>
        <mxCell id="32" value="" style="curved=1;startArrow=none;endArrow=block;exitX=0.5;exitY=1;entryX=0.5;entryY=0;" edge="1" parent="1" source="13" target="17">
          <mxGeometry relative="1" as="geometry">
            <Array as="points">
              <mxPoint x="573" y="1551" />
              <mxPoint x="122" y="1576" />
            </Array>
          </mxGeometry>
        </mxCell>
        <mxCell id="33" value="Issue Detected" style="curved=1;startArrow=none;endArrow=block;exitX=0.12;exitY=1;entryX=1;entryY=0.27;" edge="1" parent="1" source="11" target="18">
          <mxGeometry relative="1" as="geometry">
            <Array as="points">
              <mxPoint x="571" y="1070" />
              <mxPoint x="571" y="1106" />
            </Array>
          </mxGeometry>
        </mxCell>
        <mxCell id="34" value="" style="curved=1;startArrow=none;endArrow=block;exitX=0.5;exitY=0.99;entryX=0.5;entryY=0;" edge="1" parent="1" source="18" target="19">
          <mxGeometry relative="1" as="geometry">
            <Array as="points" />
          </mxGeometry>
        </mxCell>
        <mxCell id="35" value="" style="curved=1;startArrow=none;endArrow=block;exitX=0.85;exitY=1;entryX=0;entryY=0.21;" edge="1" parent="1" source="12" target="20">
          <mxGeometry relative="1" as="geometry">
            <Array as="points">
              <mxPoint x="801" y="1315" />
              <mxPoint x="801" y="1352" />
            </Array>
          </mxGeometry>
        </mxCell>
        <mxCell id="36" value="" style="curved=1;startArrow=none;endArrow=block;exitX=0.5;exitY=1;entryX=0.5;entryY=0;" edge="1" parent="1" source="20" target="21">
          <mxGeometry relative="1" as="geometry">
            <Array as="points" />
          </mxGeometry>
        </mxCell>
      </root>
    </mxGraphModel>
  </diagram>
</mxfile>
